<svg xmlns="http://www.w3.org/2000/svg" viewBox="0 0 432 432">
  <defs>
    <style>.cls-1{fill:#F2A702;fill-rule:evenodd;}.cls-2{fill:none;}</style>
  </defs>

  <path class="cls-1" d="M22.74,216.57c.07.52.56,5.29,1.08,10.6s1,9.72,1.1,9.81c.23.27,10-4.52,10-4.87s-12-16.49-12.14-16.49-.08.43,0,.95"/>
  <path class="cls-1" d="M339.54,46.27c-14.26,16.43-26.12,30.11-26.35,30.4-.41.52-.34.57,3.59,3l4,2.45,21.1-30.89c11.6-17,21.7-31.76,22.46-32.85a12.59,12.59,0,0,0,1.24-2c-.06,0-11.79,13.44-26,29.87"/>
  <path class="cls-1" d="M279,74.2l-21.23,35L256.67,111l3.52,8.63c1.93,4.75,3.57,8.63,3.64,8.63s7.88-19.14,17.36-42.54C301,36.87,299.31,41,299.21,41S290.09,56,279,74.2"/>
  <path class="cls-1" d="M279.37,102.11l-11.94,30.14,1.3.16c.72.09,7.35.23,14.74.31l13.42.15,8.36-10c4.59-5.48,8.34-10.05,8.33-10.16-.05-.33-22-40.75-22.14-40.76s-5.5,13.56-12.07,30.13"/>
  <path class="cls-1" d="M297.67,74.05c.72,1.4,19.91,36.88,20,37s56.68,9,56.76,8.87-11.41-7-25.43-15.42S317.8,85.64,310.83,81.4,298,73.59,297.7,73.46c-.44-.24-.44-.21,0,.59"/>
  <path class="cls-1" d="M309.93,124.09c-4,4.76-7.27,8.69-7.23,8.74s67.8,1.31,73.5,1.32H380l1.3-4.11a35.85,35.85,0,0,0,1.18-4.24c-.07-.06-14.51-2.37-32.1-5.13l-32.56-5.12c-.51-.1-1.6,1.08-7.91,8.54"/>
  <path class="cls-1" d="M251.36,144.11c-2.18,13.71-3.94,25-3.9,25s13.85-33.55,14-34.19c.09-.36-5.57-15-6-15.54-.09-.1-2,11-4.13,24.74"/>
  <path class="cls-1" d="M265.25,137.74c-2.1,5.09-19.65,49-19.6,49.08s53.56,2.19,54.55,2.11l1-.09-2.64-25.63c-1.45-14.1-2.71-25.7-2.79-25.79s-6.92-.25-15.18-.35l-15-.18-.35.85"/>
  <path class="cls-1" d="M301.68,149.38c.07.35,1.06,9.49,2.18,20.3s2.1,19.93,2.17,20.25c.11.52,29,30.12,29.16,29.92S302.11,149.32,301.8,149c-.17-.17-.21,0-.12.38"/>
  <path class="cls-1" d="M241.81,207.05c-1.31,8.41-2.42,15.42-2.48,15.57s18.16,13,40.46,28.62l40.56,28.35,3.34-3.2c1.84-1.76,9.77-9.09,17.61-16.3L355.56,247l-11.1-11.18-26.29-26.52L303,194l-27.61-1.08c-15.19-.59-28.41-1.08-29.39-1.09l-1.77,0-2.39,15.29"/>
  <path class="cls-1" d="M75,221.18c-6,.93-10.88,1.76-11,1.85s-9.77,26.4-9.67,26.5S81.94,238.31,82.2,238c.11-.11,1.08-3.57,2.15-7.69s2.15-8.26,2.41-9.2l.47-1.72-.68,0c-.38,0-5.55.8-11.51,1.73"/>
  <path class="cls-1" d="M91.47,221.13c-.84,2.92-4.25,16.36-4.17,16.44s22.86-.69,23.07-.87-3.76-3.47-8.58-7.51c-11.32-9.5-10.16-8.6-10.32-8.06"/>
  <path class="cls-1" d="M43.12,231.69c-8.75,4.21-15.89,7.71-15.89,7.78S49.3,252,49.38,251.86c.35-.41,10.12-27.86,9.91-27.85s-7.43,3.47-16.17,7.68"/>
  <path class="cls-1" d="M220.39,232.48c-7.11,2.69-13.17,5.11-13.47,5.37-.58.5-54.68,86.35-54.52,86.51s71.54-35.2,71.78-35.43c.09-.1,9.76-60.59,9.76-61.1a.28.28,0,0,0-.32-.27c-.17,0-6.13,2.22-13.23,4.92"/>
  <path class="cls-1" d="M238.37,228.39c-.37,1.58-9.22,59.41-9.11,59.52s84-7.33,84.22-7.5,0-.21-.25-.33-17.11-11.92-37.55-26.23c-33.07-23.14-37.19-25.95-37.31-25.46"/>
  <path class="cls-1" d="M362,232.89c-4,.09-8.77.18-10.51.2l-3.17,0,5.32,5.33c2.92,2.93,5.4,5.3,5.5,5.27s10.76-9.82,11.45-10.57c.48-.54.48-.54-.38-.49-.48,0-4.17.12-8.21.22"/>
  <path class="cls-1" d="M369.43,240.56l-7.27,6.4,3.48,3.55c1.91,2,11,11.21,20.26,20.56l16.78,17-1-2.05c-4.15-8.85-24.8-51.86-24.9-51.86s-3.4,2.88-7.39,6.4"/>
  <path class="cls-1" d="M160.41,239.61c-22.26.86-40.54,1.62-40.62,1.7s1.06,11.23,2.52,24.77L125,290.71l10.35,17.43c5.69,9.59,10.46,17.43,10.6,17.44s55.23-87.34,55.05-87.47-18.3.64-40.56,1.5"/>
  <path class="cls-1" d="M110.89,252.67l-4.62,6.82,6.38,10.79c3.51,5.94,6.42,10.75,6.47,10.7s-3.24-34.21-3.44-34.7c-.13-.32-1.4,1.38-4.79,6.39"/>
  <path class="cls-1" d="M325.26,281.24a29.94,29.94,0,0,1-3.79,3c-.55.13-32.47,3.17-33.34,3.17-.31,0-.49.14-.44.34.09.4,48.92,65.66,49,65.54s-1.69-16.72-3.85-37.07-3.93-37.21-3.93-37.47-.09-.47-.19-.46a45.3,45.3,0,0,0-3.49,2.92"/>
  <path class="cls-1" d="M126,302.16c0,.9,4.58,46.49,4.72,46.94s1.36-1.48,9.31-13.75l3.24-5-8.64-14.41C129,306.56,126,301.75,126,302.16"/>
  <path class="cls-1" d="M339.07,331.76c0,.14.69,6.61,1.52,14.38l1.53,14.13,12.43,16.18c6.84,8.9,12.55,16.3,12.68,16.44s-.09-.49-.5-1.4c-2.16-4.8-27.47-59.78-27.56-59.87s-.1,0-.1.14"/>
  <path class="cls-1" d="M139,345.58c-3.79,5.89-6.8,10.78-6.69,10.88s13,12.05,28.72,26.55c29.31,27.1,29.81,27.56,29.58,27.13-.49-.9-44.38-74.9-44.53-75.06s-3.29,4.61-7.08,10.5"/>
  <path class="cls-1" d="M132.17,363.45c.08.56,1.36,12.55,2.84,26.64s2.76,25.81,2.84,26,1.88-8.76,4-19.92,3.94-20.51,4-20.75-1.65-2-6.26-6.19c-3.5-3.17-6.64-6-7-6.29l-.6-.53.14,1"/>
  <rect class="cls-2" x="22.68" y="16.4" width="380" height="399.7"/>
</svg>
